<?xml version="1.0" encoding="utf-8"?>
<!-- Svg Vector Icons : http://www.onlinewebfonts.com/icon -->
<!DOCTYPE svg PUBLIC "-//W3C//DTD SVG 1.1//EN" "http://www.w3.org/Graphics/SVG/1.1/DTD/svg11.dtd">
<svg version="1.1" xmlns="http://www.w3.org/2000/svg" xmlns:xlink="http://www.w3.org/1999/xlink" x="0px" y="0px" viewBox="0 0 256 256" enable-background="new 0 0 256 256" xml:space="preserve">
<metadata> Svg Vector Icons : http://www.onlinewebfonts.com/icon </metadata>
<g><g><path fill="#000000" d="M231.6,193.8l14.4,11.9l-16.4,19.6l-13.9-11.5l-12.5,15.7c-7.1,8.9-16.6,7.3-22,2.8c-5.4-4.5-4.9-10.3,2.3-19.2l12.5-15.7l-4-3.3l-17.5,21.9c-8.8,11-20.3,15.9-31.2,6.9c-10.8-8.9-9-21.8-0.2-32.8l17.5-21.9l-78.4-64.8l-17.5,21.9c-8.8,11-20.8,15.5-31.6,6.5c-10.8-8.9-8.7-21.6,0-32.6l17.5-21.9l-3.8-3.2L34.6,89.2c-7.1,8.9-13.9,12.1-19.3,7.6c-5.4-4.5-8.1-15.4-0.9-24.3l12.1-15.1L13,46.3l16.4-19.6l13,10.7L50.7,27c7.1-8.9,17.8-8,23.2-3.5c5.4,4.5,4.2,11.3-2.9,20.2l-8.3,10.4l3.8,3.2l13.3-16.6c8.8-11,20.8-15.9,31.6-7c10.8,8.9,8.8,22.1,0,33.1L98.1,83.4l78.4,64.8l13.3-16.6c8.8-11,21-15.7,31.9-6.8c10.8,8.9,8.3,21.7-0.5,32.7l-13.3,16.6l4,3.3L221,166c7.1-8.9,13.3-11.6,18.8-7.1c5.4,4.5,8.1,14.6,1,23.5L231.6,193.8z"/></g></g>
</svg>