<?xml version="1.0" encoding="utf-8"?>
<!-- Svg Vector Icons : http://www.onlinewebfonts.com/icon -->
<!DOCTYPE svg PUBLIC "-//W3C//DTD SVG 1.1//EN" "http://www.w3.org/Graphics/SVG/1.1/DTD/svg11.dtd">
<svg version="1.1" xmlns="http://www.w3.org/2000/svg" xmlns:xlink="http://www.w3.org/1999/xlink" x="0px" y="0px" viewBox="0 0 256 256" enable-background="new 0 0 256 256" xml:space="preserve">
<metadata> Svg Vector Icons : http://www.onlinewebfonts.com/icon </metadata>
<g><g><g><path fill="#000000" d="M238.6,120.6H216c-1.5-21.5-10-39.9-25.4-55.1c-15.4-15.2-33.8-23.7-55.3-25.6V17.4c0-2.1-0.7-3.9-2.1-5.3c-1.4-1.4-3.2-2.1-5.3-2.1c-2.1,0-3.9,0.7-5.3,2.1c-1.4,1.4-2.1,3.2-2.1,5.3V40c-21.5,1.9-40,10.4-55.3,25.6C50,80.8,41.5,99.1,40,120.6H17.4c-2.1,0-3.9,0.7-5.3,2.1c-1.4,1.4-2.1,3.2-2.1,5.3s0.7,3.9,2.1,5.3c1.4,1.4,3.2,2.1,5.3,2.1H40c1.5,21.5,10,39.9,25.4,55.1c15.4,15.2,33.8,23.7,55.3,25.6v22.6c0,2.1,0.7,3.9,2.1,5.3c1.4,1.4,3.2,2.1,5.3,2.1c2.1,0,3.9-0.7,5.3-2.1c1.4-1.4,2.1-3.2,2.1-5.3V216c21.5-1.9,40-10.4,55.3-25.6c15.4-15.2,23.8-33.6,25.4-55.1h22.6c2.1,0,3.9-0.7,5.3-2.1c1.4-1.4,2.1-3.2,2.1-5.3s-0.7-3.9-2.1-5.3C242.6,121.3,240.8,120.6,238.6,120.6z M120.6,54.7v65.9H54.7c1.5-17.5,8.5-32.5,21-44.9C88.1,63.2,103.1,56.2,120.6,54.7z M54.7,135.4h65.9v65.9c-17.5-1.5-32.5-8.5-44.9-21C63.2,167.9,56.2,152.9,54.7,135.4z M135.4,201.3v-65.9h65.9c-1.5,17.5-8.5,32.5-21,44.9C167.9,192.8,152.9,199.8,135.4,201.3z M135.4,120.6V54.7c17.5,1.5,32.5,8.5,44.9,21c12.5,12.5,19.5,27.4,21,44.9H135.4z"/></g></g></g>
</svg>